<?xml version="1.0" encoding="UTF-8"?>
<svg id="_圖層_1" data-name="圖層 1" xmlns="http://www.w3.org/2000/svg" viewBox="0 0 1451.34 1451.34">
  <defs>
    <style>
      .cls-1 {
        fill: none;
        stroke: #231815;
        stroke-miterlimit: 10;
        stroke-width: 70px;
      }

      .cls-2 {
        fill: #a9c455;
      }
    </style>
  </defs>
  <path class="cls-2" d="M790.71,200.4c-53.65.6-75.05,12.94-79.31,55.97-9.3,93.99-41.64,357.08-41.64,357.08-8.15,69.89-30.07,133.56-92.49,171.98-53.3,32.81-165.15,89.41-221.27,117.14-176.68,87.29-125.55,240.98-75.81,307.76,83.08,111.53,240.59,131.14,356.1,74.47,0,0,278.38-152.82,409.01-213.97,52.09-24.38,114.99-72.58,127.81-182.49,0,0,31.97-429.88,66.35-568.88,10.82-43.73-36.47-66.34-89.22-77.23-107.14-22.13-243.36-43.13-359.53-41.84Z"/>
  <path class="cls-1" d="M790.71,200.4c-53.65.6-75.05,12.94-79.31,55.97-9.3,93.99-41.64,357.08-41.64,357.08-8.15,69.89-30.07,133.56-92.49,171.98-53.3,32.81-165.15,89.41-221.27,117.14-176.68,87.29-125.55,240.98-75.81,307.76,83.08,111.53,240.59,131.14,356.1,74.47,0,0,278.38-152.82,409.01-213.97,52.09-24.38,114.99-72.58,127.81-182.49,0,0,31.97-429.88,66.35-568.88,10.82-43.73-36.47-66.34-89.22-77.23-107.14-22.13-243.36-43.13-359.53-41.84Z"/>
  <path class="cls-1" d="M922.1,1136.02c-18.37-70.96,57.09-391.03,262.76-389"/>
  <path class="cls-1" d="M356,902.58c71.65,60.78,35.38,288.38-42.26,344.53"/>
</svg>