<?xml version="1.0" encoding="UTF-8"?>
<svg id="_圖層_1" data-name="圖層 1" xmlns="http://www.w3.org/2000/svg" viewBox="0 0 1451.34 1451.34">
  <defs>
    <style>
      .cls-1 {
        fill: none;
        stroke: #231815;
        stroke-miterlimit: 10;
        stroke-width: 70px;
      }
    </style>
  </defs>
  <path class="cls-1" d="M1174.96,437.67c-90.31-50.25-275.91-152.92-408.42-225.15-25.48-13.89-56.26-13.89-81.74,0-132.52,72.23-318.11,174.9-408.42,225.15-73.74,41.03-73.28,64.02-73.28,150.17v682.11c0,12.2,11.27,22.09,25.17,22.09h304.53c2.99,0,5.42-2.43,5.42-5.42v-428.87c0-26.55,21.52-48.06,48.06-48.06h278.78c26.55,0,48.06,21.52,48.06,48.06v428.87c0,2.99,2.43,5.42,5.42,5.42h304.53c13.9,0,25.17-9.89,25.17-22.09v-682.11c0-86.15.46-109.14-73.28-150.17Z"/>
</svg>