<?xml version="1.0" encoding="UTF-8"?>
<svg id="_圖層_1" data-name="圖層 1" xmlns="http://www.w3.org/2000/svg" viewBox="0 0 1451.34 1451.34">
  <defs>
    <style>
      .cls-1 {
        fill: none;
        stroke: #231815;
        stroke-miterlimit: 10;
        stroke-width: 70px;
      }
    </style>
  </defs>
  <path class="cls-1" d="M797.19,250.64c-81.22,51.05-245.39,156.65-329.98,206.93-56.28,33.45-90.51,54.82-220.07,54.82h-53.67c-11.52,0-20.87,9.34-20.87,20.87v411.09c0,11.52,9.34,20.87,20.87,20.87h53.67c129.56,0,163.79,21.36,220.07,54.82,84.6,50.28,248.76,155.88,329.98,206.93,19.25,12.1,37.51-.27,37.51-17.03V267.67c0-16.76-18.26-29.13-37.51-17.03Z"/>
  <path class="cls-1" d="M994.38,433.9c49.66,60.74,76.22,168.83,76.22,288.8s-26.56,228.07-76.22,288.8"/>
  <path class="cls-1" d="M1181.3,258.92c79.75,97.54,122.4,271.12,122.4,463.78s-42.66,366.24-122.4,463.78"/>
</svg>